# 3ds Max Wavefront OBJ Exporter v0.97b - (c)2007 guruware
# 创建的文件:10.04.2022 03:01:04

mtllib smallbox2.mtl

#
# object smallbox
#

v  -3.4536 -10.9400 3.1246
v  -3.4536 -27.4400 3.1246
v  1.2646 -27.4400 -12.6864
v  1.2646 -10.9400 -12.6864
v  -19.2646 -10.9400 -1.5936
v  -14.5464 -10.9400 -17.4046
v  -19.2646 -27.4400 -1.5936
v  -14.5464 -27.4400 -17.4046
# 8 vertices

vn 0.9582 0.0000 0.2860
vn 0.0000 1.0000 -0.0000
vn -0.9582 0.0000 -0.2860
vn 0.0000 -1.0000 -0.0000
vn -0.2860 0.0000 0.9582
vn 0.2860 0.0000 -0.9582
# 6 vertex normals

o smallbox
g smallbox
usemtl small_box
s off
f -8//-6 -7//-6 -6//-6 
f -6//-6 -5//-6 -8//-6 
f -4//-5 -8//-5 -5//-5 
f -5//-5 -3//-5 -4//-5 
f -2//-4 -4//-4 -3//-4 
f -3//-4 -1//-4 -2//-4 
f -7//-3 -2//-3 -1//-3 
f -1//-3 -6//-3 -7//-3 
f -4//-2 -2//-2 -7//-2 
f -7//-2 -8//-2 -4//-2 
f -5//-1 -6//-1 -1//-1 
f -1//-1 -3//-1 -5//-1 
# 12 faces

