# 3ds Max Wavefront OBJ Exporter v0.97b - (c)2007 guruware
# 创建的文件:10.04.2022 03:01:38

mtllib tallbox2.mtl

#
# object tallbox
#

v  3.8647 5.5600 21.9239
v  3.8647 -27.4400 21.9239
v  19.6239 -27.4400 17.0353
v  19.6239 5.5600 17.0353
v  -1.0239 5.5600 6.1647
v  14.7353 5.5600 1.2761
v  -1.0239 -27.4400 6.1647
v  14.7353 -27.4400 1.2761
# 8 vertices

vn 0.2963 0.0000 0.9551
vn 0.0000 1.0000 -0.0000
vn -0.2963 0.0000 -0.9551
vn 0.0000 -1.0000 -0.0000
vn -0.9551 0.0000 0.2963
vn 0.9551 0.0000 -0.2963
# 6 vertex normals

o tallbox
g tallbox
usemtl large_box
s off
f -8//-6 -7//-6 -6//-6 
f -6//-6 -5//-6 -8//-6 
f -4//-5 -8//-5 -5//-5 
f -5//-5 -3//-5 -4//-5 
f -2//-4 -4//-4 -3//-4 
f -3//-4 -1//-4 -2//-4 
f -7//-3 -2//-3 -1//-3 
f -1//-3 -6//-3 -7//-3 
f -4//-2 -2//-2 -7//-2 
f -7//-2 -8//-2 -4//-2 
f -5//-1 -6//-1 -1//-1 
f -1//-1 -3//-1 -5//-1 
# 12 faces

