# 3ds Max Wavefront OBJ Exporter v0.97b - (c)2007 guruware
# 创建的文件:27.03.2022 22:57:27

mtllib tallbox.mtl

#
# object cornell_box
#

v  1.3239 -27.4400 -1.7047
v  1.3239 5.5600 -1.7047
v  -14.4353 5.5600 3.1839
v  -14.4353 -27.4400 3.1839
v  -3.5647 5.5600 -17.4639
v  -19.3239 5.5600 -12.5753
v  -3.5647 -27.4400 -17.4639
v  -19.3239 -27.4400 -12.5753
# 8 vertices

vn 0.2963 0.0000 0.9551
vn -0.0000 1.0000 -0.0000
vn -0.2963 -0.0000 -0.9551
vn 0.0000 -1.0000 0.0000
vn -0.9551 0.0000 0.2963
vn 0.9551 -0.0000 -0.2963
# 6 vertex normals

o cornell_box
g cornell_box
usemtl large_box
s off
f -8//-6 -7//-6 -6//-6 -5//-6 
f -7//-5 -4//-5 -3//-5 -6//-5 
f -4//-4 -2//-4 -1//-4 -3//-4 
f -2//-3 -8//-3 -5//-3 -1//-3 
f -5//-2 -6//-2 -3//-2 -1//-2 
f -2//-1 -4//-1 -7//-1 -8//-1 
# 6 polygons

