# 3ds Max Wavefront OBJ Exporter v0.97b - (c)2007 guruware
# 创建的文件:25.03.2022 05:57:48

mtllib box.mtl

#
# object cornell_box
#

v  1.9565 10.0526 -8.2163
v  1.9565 11.7026 -8.2163
v  1.4846 11.7026 -6.6352
v  1.4846 10.0526 -6.6352
v  0.3754 11.7026 -8.6881
v  -0.0965 11.7026 -7.1070
v  0.3754 10.0526 -8.6881
v  -0.0965 10.0526 -7.1070
# 8 vertices

vn 0.9582 -0.0000 0.2860
vn -0.0000 1.0000 0.0000
vn -0.9582 0.0000 -0.2860
vn 0.0000 -1.0000 -0.0000
vn -0.2860 -0.0000 0.9582
vn 0.2860 0.0000 -0.9582
# 6 vertex normals

o cornell_box
g cornell_box
usemtl small_box
s off
f -8//-6 -7//-6 -6//-6 -5//-6 
f -7//-5 -4//-5 -3//-5 -6//-5 
f -4//-4 -2//-4 -1//-4 -3//-4 
f -2//-3 -8//-3 -5//-3 -1//-3 
f -5//-2 -6//-2 -3//-2 -1//-2 
f -2//-1 -4//-1 -7//-1 -8//-1 
# 6 polygons

